<svg xmlns="http://www.w3.org/2000/svg" version="1.1" xmlns:xlink="http://www.w3.org/1999/xlink" xmlns:svgjs="http://svgjs.dev/svgjs" width="672" height="168" preserveAspectRatio="none" viewBox="0 0 672 168"><g mask="url(&quot;#SvgjsMask1070&quot;)" fill="none"><rect width="672" height="168" x="0" y="0" fill="rgba(37, 99, 235, 1)"></rect><path d="M619.216,126.427C630.037,126.488,641.109,122.545,646.425,113.12C651.668,103.826,649.11,92.467,643.487,83.398C638.197,74.866,629.239,69.809,619.216,69.24C607.951,68.6,595.541,70.718,589.649,80.341C583.567,90.275,586.245,103.011,592.535,112.815C598.313,121.822,608.515,126.366,619.216,126.427" fill="rgba(217, 70, 239, 1)" class="triangle-float3"></path><path d="M278.474,128.068C286.487,128.476,294.809,125.457,298.788,118.49C302.742,111.568,300.785,103.084,296.629,96.281C292.672,89.802,286.065,85.121,278.474,85.235C271.058,85.347,264.78,90.295,261.241,96.813C257.87,103.023,258.041,110.402,261.453,116.59C264.995,123.013,271.148,127.695,278.474,128.068" fill="rgba(217, 70, 239, 1)" class="triangle-float1"></path><path d="M69.735,39.615C75.762,39.378,80.482,35.126,83.577,29.948C86.775,24.598,88.878,18.1,85.853,12.65C82.76,7.078,76.108,5.033,69.735,5.006C63.305,4.979,56.715,7.016,53.376,12.511C49.924,18.193,50.438,25.421,53.873,31.113C57.195,36.617,63.311,39.867,69.735,39.615" fill="rgba(217, 70, 239, 1)" class="triangle-float1"></path><path d="M420.982,90.604C429.43,91.237,438.415,88.117,442.534,80.714C446.57,73.459,443.738,64.711,439.285,57.704C435.202,51.281,428.592,46.7,420.982,46.805C413.538,46.907,407.041,51.63,403.531,58.196C400.217,64.396,401.049,71.665,404.382,77.855C407.927,84.439,413.525,90.045,420.982,90.604" fill="rgba(217, 70, 239, 1)" class="triangle-float1"></path><path d="M172.917,121.917C181.146,121.742,189.564,119.479,193.948,112.512C198.598,105.122,198.766,95.524,194.212,88.075C189.831,80.909,181.316,78.067,172.917,78.113C164.611,78.158,156.5,81.311,152.019,88.304C147.163,95.883,145.529,105.794,150.281,113.438C154.841,120.772,164.283,122.1,172.917,121.917" fill="rgba(217, 70, 239, 1)" class="triangle-float1"></path><path d="M351.622,114.079C365.373,113.548,376.426,104.769,384.068,93.325C392.945,80.03,402.716,63.55,394.531,49.818C386.431,36.23,367.419,38.05,351.622,38.891C337.805,39.627,323.498,42.399,315.961,54.003C307.782,66.596,306.861,83.097,314.526,96.009C322.051,108.686,336.891,114.648,351.622,114.079" fill="rgba(217, 70, 239, 1)" class="triangle-float3"></path><path d="M10.335,131.655C15.198,131.76,18.361,127.015,20.577,122.685C22.557,118.815,23.152,114.386,21.144,110.531C18.972,106.361,15.031,103.26,10.335,103.023C5.217,102.764,-0.278,104.739,-2.548,109.334C-4.662,113.613,-1.553,118.123,0.833,122.257C3.219,126.392,5.562,131.552,10.335,131.655" fill="rgba(217, 70, 239, 1)" class="triangle-float3"></path><path d="M547.147,207.081C560.487,207.624,574.109,202.406,580.814,190.861C587.544,179.273,585.051,165.013,578.303,153.435C571.609,141.949,560.42,133.846,547.147,133.091C532.393,132.251,516.092,136.441,509.177,149.501C502.528,162.058,510.091,176.439,517.913,188.301C524.747,198.664,534.744,206.576,547.147,207.081" fill="rgba(217, 70, 239, 1)" class="triangle-float1"></path><path d="M513.16,111.222C528.532,112.134,545.478,107.616,552.671,94C559.578,80.925,550.91,66.468,543.591,53.619C536.16,40.573,528.164,25.195,513.16,24.637C497.58,24.057,485.437,37.217,478.535,51.197C472.425,63.572,474.118,77.793,481.014,89.748C487.916,101.712,499.372,110.404,513.16,111.222" fill="rgba(217, 70, 239, 1)" class="triangle-float2"></path><path d="M591.314,130.101C596.71,129.905,600.539,125.423,603.147,120.695C605.645,116.166,606.737,110.918,604.454,106.277C601.884,101.053,597.129,96.356,591.314,96.637C585.782,96.905,582.826,102.572,580.205,107.45C577.779,111.965,575.638,117.009,577.895,121.611C580.393,126.704,585.645,130.307,591.314,130.101" fill="rgba(217, 70, 239, 1)" class="triangle-float3"></path></g><defs><mask id="SvgjsMask1070"><rect width="672" height="168" fill="#ffffff"></rect></mask><style>
                @keyframes float1 {
                    0%{transform: translate(0, 0)}
                    50%{transform: translate(-10px, 0)}
                    100%{transform: translate(0, 0)}
                }

                .triangle-float1 {
                    animation: float1 5s infinite;
                }

                @keyframes float2 {
                    0%{transform: translate(0, 0)}
                    50%{transform: translate(-5px, -5px)}
                    100%{transform: translate(0, 0)}
                }

                .triangle-float2 {
                    animation: float2 4s infinite;
                }

                @keyframes float3 {
                    0%{transform: translate(0, 0)}
                    50%{transform: translate(0, -10px)}
                    100%{transform: translate(0, 0)}
                }

                .triangle-float3 {
                    animation: float3 6s infinite;
                }
            </style></defs></svg>