<svg xmlns="http://www.w3.org/2000/svg" version="1.1" xmlns:xlink="http://www.w3.org/1999/xlink" xmlns:svgjs="http://svgjs.dev/svgjs" width="672" height="168" preserveAspectRatio="none" viewBox="0 0 672 168"><g mask="url(&quot;#SvgjsMask1013&quot;)" fill="none"><rect width="672" height="168" x="0" y="0" fill="#0e2a47"></rect><path d="M84 37.64C81.67 37.64 79.52 39.77 79.52 42C79.52 44.35 81.66 46.8 84 46.8C86.56 46.8 89.33 44.34 89.33 42C89.33 39.76 86.57 37.64 84 37.64" stroke="rgba(217, 70, 239, 1)" stroke-width="2"></path><path d="M224 0C239.34 9.34 236.58 25.12 252 25.57C271.58 26.14 271.79 5.92 294 2.03C313.79 -1.43 315.76 11.54 336 10.87C346.59 10.52 345.13 2.73 355.66 0C366.13 -2.71 366.83 0 378 0C399 0 399 0 420 0C441 0 441 0 462 0C483 0 483 0 504 0C525 0 525 0 546 0C567 0 567 0 588 0C609 0 609 0 630 0C651 0 661.5 -10.5 672 0C682.5 10.5 672 21 672 42C672 58.8 679.4 75.6 672 75.6C661.03 75.6 654.01 58.26 635.25 42C633.01 40.06 632.56 40.72 630 39.2C608.93 26.72 610.06 16.94 588 14C568.06 11.34 567.48 23.18 546 28C525.48 32.6 523.17 27.31 504 32.84C498.89 34.31 497.45 37.55 497.45 42C497.45 46.01 499.3 48.51 504 49.75C523.58 54.9 525.08 55.33 546 54.78C567.08 54.22 569.88 41.13 588 47.53C611.26 55.74 608.44 65.7 628.76 84C629.44 84.61 629.14 85.06 630 85.35C650.76 92.41 659.03 86.15 672 98.7C680.03 106.47 672 112.35 672 126C672 147 682.5 157.5 672 168C661.5 178.5 651 168 630 168C609 168 609 168 588 168C567 168 567 168 546 168C525 168 525 168 504 168C488.19 168 479.52 177.01 472.39 168C462.91 156.01 473.66 146.69 470.79 126C468.47 109.25 466.37 93.13 462 93.13C457.63 93.13 456.01 109.28 453.31 126C449.97 146.72 459.67 155.72 449.93 168C443.01 176.72 434.97 168 420 168C399 168 399 168 378 168C364 168 356.12 176.39 350 168C340.81 155.39 351.63 146.26 347.38 126C344.63 112.85 340.86 101.18 336 101.18C331.38 101.18 329.25 113.26 328.42 126C327.08 146.67 340.75 156.91 331.66 168C323.54 177.91 312.83 168 294 168C273 168 273 168 252 168C231.29 168 230.37 169.16 210.58 168C209.37 167.93 210.37 165.53 210 165.53C209.61 165.53 210.32 167.93 209.05 168C189.32 169.16 188.52 168 168 168C147 168 147 168 126 168C105 168 105 168 84 168C63.43 168 49.56 178.14 42.86 168C35.68 157.14 56.54 145.58 56.25 126C56.11 116.27 48.29 109.38 42 109.38C36.53 109.38 32.94 116.97 32.72 126C32.22 146.28 48.94 157.23 40.55 168C32.58 178.23 9.96 178.32 0 168C-10.32 157.32 0 147 0 126C0 105 0 105 0 84C0 63 0 63 0 42C0 21 -10.5 10.5 0 0C10.5 -10.5 21 0 42 0C63 0 63 0 84 0C105 0 105 0 126 0C147 0 147 0 168 0C189 0 189 0 210 0C217 0 218.34 -3.45 224 0" stroke="rgba(37, 99, 235, 1)" stroke-width="2"></path><path d="M378 31.82C374.15 31.82 373.27 37.11 373.27 42C373.27 45.63 374.64 48.86 378 48.86C385.01 48.86 394 46.08 394 42C394 37.56 384.51 31.82 378 31.82" stroke="rgba(217, 70, 239, 1)" stroke-width="2"></path><path d="M126 115.61C117.14 115.61 109.9 119.84 109.9 126C109.9 133.51 116.24 142.95 126 142.95C143.61 142.95 164.64 133.02 164.64 126C164.64 119.35 144.51 115.61 126 115.61" stroke="rgba(217, 70, 239, 1)" stroke-width="2"></path><path d="M546 122.4C545.02 122.4 544.23 124.06 544.23 126C544.23 132.16 544.99 138.6 546 138.6C547.02 138.6 548.29 132.08 548.29 126C548.29 123.98 547.05 122.4 546 122.4" stroke="rgba(37, 99, 235, 1)" stroke-width="2"></path><path d="M24.71 0C34.16 2.36 34.03 10.5 42 10.5C47.75 10.5 45.54 1.65 52.14 0C66.54 -3.6 68.07 0 84 0C101.44 0 103.26 -3.6 118.87 0C124.26 1.24 120.77 7.11 126 9.69C145.33 19.2 146.82 23.55 168 24.18C188.82 24.8 191.63 7.69 210 12.19C228.03 16.6 225.89 26.64 240.8 42C246.89 48.27 246.1 55.44 252 55.44C258.42 55.44 258.27 48.22 265.44 42C279.27 29.99 277.6 23.34 294 18.97C312.88 13.95 316.97 16.42 336 23.22C349.21 27.94 348.82 31.17 358.48 42C369.82 54.71 366.59 57.74 378 70.29C385.69 78.74 386.93 77.77 396.67 84C407.93 91.19 410.47 88.15 420 97.13C432.76 109.15 437.38 109.73 441.24 126C445.78 145.17 444.4 152.98 436.8 168C433.78 173.98 428.4 168 420 168C405.07 168 401.23 174.27 390.13 168C380.23 162.4 383.93 156.2 378 144.26C373.49 135.2 372.57 135.53 369.25 126C362.07 105.4 367.67 101.47 357 84C351.05 74.25 346.54 71.56 336 71.56C325.2 71.56 318.46 73.84 314.32 84C307.37 101.06 314.02 105 313.83 126C313.64 147 320.32 153.67 313.55 168C310.4 174.67 303.77 168 294 168C273 168 273 168 252 168C238.48 168 224.96 173.77 224.96 168C224.96 159.67 237.9 153.27 252 139.8C259.89 132.27 268.95 133.33 268.95 126C268.95 117.96 260.8 117.17 252 109.05C238.05 96.17 237.82 96.41 223.44 84C216.82 78.28 216.61 72.8 210 72.8C203.67 72.8 203.81 78.44 197.56 84C182.81 97.12 185.25 105.26 168 110.16C149.47 115.42 145.45 100.24 126 104.32C107.65 108.16 92.4 113.15 92.4 126C92.4 141.68 106.05 155.15 126 161.37C143.85 166.93 149.24 147.46 168 149.56C178.83 150.77 185.18 162.52 185.18 168C185.18 171.74 176.59 168 168 168C147 168 147 168 126 168C105 168 105 168 84 168C74.15 168 65.7 174.56 64.29 168C61.2 153.56 80.14 144.55 75 126C68.99 104.3 59.55 105.3 42 87.5C38.85 84.3 37.84 85.66 33.6 84C16.84 77.45 9.29 82.7 0 71.08C-7.51 61.7 0 56.54 0 42C0 21 -7.78 13.22 0 0C4.58 -7.78 13.16 -2.89 24.71 0" stroke="rgba(37, 99, 235, 1)" stroke-width="2"></path><path d="M84 24C74.37 24 65.52 32.78 65.52 42C65.52 51.68 74.33 61.8 84 61.8C94.57 61.8 106 51.64 106 42C106 32.74 94.61 24 84 24" stroke="rgba(37, 99, 235, 1)" stroke-width="2"></path><path d="M420 21.84C402.45 7.58 378 5.79 378 0C378 -5.13 399 0 420 0C441 0 441 0 462 0C483 0 483 0 504 0C525 0 525 0 546 0C548.74 0 551.48 -0.7 551.48 0C551.48 0.8 548.99 2.13 546 3C525.25 9.01 521.26 2.92 504 13.75C490.17 22.42 483.82 28.28 483.82 42C483.82 54.36 491.01 58.47 504 65.91C522.1 76.28 525.34 78.73 546 77.61C567.34 76.45 568.81 59.52 588 61.34C602.47 62.71 601.17 72.15 613.32 84C622.17 92.63 620.73 94.17 630 102.29C644.71 115.17 661.28 112.34 661.28 126C661.28 143.04 647.06 146.82 630 163.69C625.82 167.82 624.69 167.4 618.8 168C603.69 169.55 603.4 168 588 168C580.04 168 574.89 173.75 572.07 168C564.58 152.75 574.09 145.46 567.38 126C561.06 107.66 555.78 92.4 546 92.4C536.81 92.4 532.26 108.24 529.44 126C526.26 146.04 541.44 155.72 534 168C528.72 176.72 519 168 504 168C493.84 168 487.1 174.85 483.68 168C476.6 153.85 484.04 146.97 483 126C481.95 104.97 486.35 102.28 479.5 84C475.85 74.28 470.57 77.22 462 70C445.66 56.22 443.48 57.81 429.69 42C422.48 33.73 428.29 28.58 420 21.84" stroke="rgba(37, 99, 235, 1)" stroke-width="2"></path><path d="M630 21.7C616.1 12.52 604.47 6.16 604.47 0C604.47 -4.69 617.24 0 630 0C651 0 661.5 -10.5 672 0C682.5 10.5 672 21 672 42C672 43.8 672.79 45.6 672 45.6C670.82 45.6 670.37 43.32 668.06 42C649.37 31.37 647.89 33.52 630 21.7" stroke="rgba(217, 70, 239, 1)" stroke-width="2"></path><path d="M0 95.59C5.61 95.59 19.54 109.74 20.51 126C21.71 145.95 13.69 148.85 4.34 168C3.44 169.85 0.2 169.97 0 168C-1.97 148.97 0 147 0 126C0 110.8 -4.65 95.59 0 95.59" stroke="rgba(37, 99, 235, 1)" stroke-width="2"></path><path d="M0 13.13C12.79 9.25 22.97 18.59 42 29.25C48.73 33.02 51.52 35.21 51.52 42C51.52 50.98 50.45 59.33 42 60.79C24.69 63.77 17.42 58.67 0 50.88C-3.58 49.28 0 46.44 0 42C0 27.56 -8.21 15.62 0 13.13" stroke="rgba(37, 99, 235, 1)" stroke-width="2"></path><path d="M84 10.36C77.01 10.36 70.24 2.88 70.24 0C70.24 -2.3 77.12 0 84 0C91.53 0 99.06 -2.34 99.06 0C99.06 2.84 91.42 10.36 84 10.36" stroke="rgba(217, 70, 239, 1)" stroke-width="2"></path><path d="M122.67 42C124.95 39.82 123.46 36.62 126 36.62C131.69 36.62 133.03 38.43 139.13 42C154.03 50.74 156.65 49.02 168 61.25C176.14 70.02 178.11 73.72 178.11 84C178.11 89.57 174.34 91.85 168 92.95C148.28 96.37 146.64 90.28 126 93.03C104.64 95.88 102.1 107.01 84 104.16C73.46 102.5 68.73 92.2 68.73 84C68.73 78.52 77.39 81.95 84 76.8C104.36 60.95 103.95 59.91 122.67 42" stroke="rgba(217, 70, 239, 1)" stroke-width="2"></path><path d="M183.4 42C183.4 35.48 197.73 29.13 210 29.13C217.68 29.13 223.3 35.51 223.3 42C223.3 48.6 217.73 55.3 210 55.3C197.78 55.3 183.4 48.56 183.4 42" stroke="rgba(37, 99, 235, 1)" stroke-width="2"></path><path d="M286.44 42C286.44 37.93 289.35 36.5 294 35.9C314.13 33.29 315.94 33.12 336 35.58C340.78 36.17 343.69 38.36 343.69 42C343.69 46.62 341.65 49.85 336 52.11C316.81 59.79 310.59 65.27 294 61.89C285.81 60.22 286.44 50.92 286.44 42" stroke="rgba(217, 70, 239, 1)" stroke-width="2"></path><path d="M449.88 42C449.88 33.58 456.7 23.47 462 23.47C466.85 23.47 470.18 33.24 470.18 42C470.18 47.76 466.6 52.5 462 52.5C456.45 52.5 449.88 48.1 449.88 42" stroke="rgba(37, 99, 235, 1)" stroke-width="2"></path><path d="M630 4.2C626.94 3.24 625.06 1.19 625.06 0C625.06 -0.91 627.53 0 630 0C651 0 656.48 -5.48 672 0C677.48 1.93 677.35 14.28 672 14.82C656.35 16.38 650.41 10.65 630 4.2" stroke="rgba(217, 70, 239, 1)" stroke-width="2"></path><path d="M244.44 84C244.44 80.34 247.41 76.44 252 76.44C261.14 76.44 271.89 80.43 271.89 84C271.89 87.52 261.28 90.63 252 90.63C247.55 90.63 244.44 87.44 244.44 84" stroke="rgba(217, 70, 239, 1)" stroke-width="2"></path><path d="M501.38 84C501.69 82.43 502.53 82.06 504 82.06C506.84 82.06 509.31 81.15 510 84C514.63 103.12 512.81 104.96 514.65 126C516.48 146.96 521.37 152.05 517.33 168C516.05 173.05 510.66 168 504 168C499.49 168 495.75 171.72 494.97 168C491.35 150.72 493.62 146.89 495.21 126C496.82 104.89 497.3 104.4 501.38 84" stroke="rgba(217, 70, 239, 1)" stroke-width="2"></path><path d="M568.24 84C568.49 75.84 578.81 75.16 588 75.16C593.63 75.16 593.31 79.21 597.88 84C614.31 101.24 613.38 102.23 630 119.23C633.91 123.23 638.94 122.1 638.94 126C638.94 130.87 636.33 136.12 630 136.77C610.86 138.74 607.28 136.02 588 131.25C585.51 130.63 587.52 128.52 586.47 126C577.64 104.9 567.72 101.26 568.24 84" stroke="rgba(217, 70, 239, 1)" stroke-width="2"></path><path d="M0 113.69C2.27 113.69 8.3 119.5 8.3 126C8.3 134.81 2.17 144.31 0 144.31C-1.98 144.31 0 135.15 0 126C0 119.84 -1.88 113.69 0 113.69" stroke="rgba(217, 70, 239, 1)" stroke-width="2"></path><path d="M287.37 126C293.98 118.33 291 106.11 294 106.11C296.94 106.11 299.01 115.85 299.25 126C299.74 146.8 297.99 147.7 295.45 168C295.36 168.7 294.73 168 294 168C273 168 273 168 252 168C245.67 168 239.34 170.7 239.34 168C239.34 164.1 245.13 160.81 252 154.8C269.14 139.81 272.98 142.68 287.37 126" stroke="rgba(217, 70, 239, 1)" stroke-width="2"></path><path d="M396.53 126C397.74 115.93 409.69 113.53 420 113.53C426.01 113.53 428.68 118.71 429.17 126C430.52 145.95 427.9 148.68 423.68 168C423.31 169.68 421.84 168 420 168C416.74 168 414.95 170.65 413.47 168C403.21 149.65 394.47 143.16 396.53 126" stroke="rgba(37, 99, 235, 1)" stroke-width="2"></path></g><defs><mask id="SvgjsMask1013"><rect width="672" height="168" fill="#ffffff"></rect></mask></defs></svg>