<svg xmlns="http://www.w3.org/2000/svg" version="1.1" xmlns:xlink="http://www.w3.org/1999/xlink" xmlns:svgjs="http://svgjs.dev/svgjs" width="672" height="168" preserveAspectRatio="none" viewBox="0 0 672 168"><g mask="url(&quot;#SvgjsMask1088&quot;)" fill="none"><rect width="672" height="168" x="0" y="0" fill="#0e2a47"></rect><use xlink:href="#SvgjsPath1089" x="30" y="30" stroke="rgba(217, 70, 239, 1)"></use><use xlink:href="#SvgjsPath1090" x="30" y="90" stroke="rgba(217, 70, 239, 1)"></use><use xlink:href="#SvgjsPath1090" x="30" y="150" stroke="rgba(37, 99, 235, 1)"></use><use xlink:href="#SvgjsPath1091" x="90" y="30" stroke="rgba(37, 99, 235, 1)" stroke-width="3"></use><use xlink:href="#SvgjsPath1092" x="90" y="90" stroke="rgba(217, 70, 239, 1)"></use><use xlink:href="#SvgjsPath1090" x="90" y="150" stroke="rgba(217, 70, 239, 1)"></use><use xlink:href="#SvgjsPath1093" x="150" y="30" stroke="rgba(217, 70, 239, 1)"></use><use xlink:href="#SvgjsPath1094" x="150" y="90" stroke="rgba(37, 99, 235, 1)"></use><use xlink:href="#SvgjsPath1089" x="150" y="150" stroke="rgba(37, 99, 235, 1)"></use><use xlink:href="#SvgjsPath1092" x="210" y="30" stroke="rgba(217, 70, 239, 1)"></use><use xlink:href="#SvgjsPath1091" x="210" y="90" stroke="rgba(217, 70, 239, 1)" stroke-width="3"></use><use xlink:href="#SvgjsPath1094" x="210" y="150" stroke="rgba(37, 99, 235, 1)"></use><use xlink:href="#SvgjsPath1092" x="270" y="30" stroke="rgba(217, 70, 239, 1)"></use><use xlink:href="#SvgjsPath1089" x="270" y="90" stroke="rgba(37, 99, 235, 1)"></use><use xlink:href="#SvgjsPath1093" x="270" y="150" stroke="rgba(217, 70, 239, 1)"></use><use xlink:href="#SvgjsPath1090" x="330" y="30" stroke="rgba(217, 70, 239, 1)"></use><use xlink:href="#SvgjsPath1090" x="330" y="90" stroke="rgba(217, 70, 239, 1)"></use><use xlink:href="#SvgjsPath1090" x="330" y="150" stroke="rgba(217, 70, 239, 1)"></use><use xlink:href="#SvgjsPath1090" x="390" y="30" stroke="rgba(217, 70, 239, 1)"></use><use xlink:href="#SvgjsPath1094" x="390" y="90" stroke="rgba(37, 99, 235, 1)"></use><use xlink:href="#SvgjsPath1090" x="390" y="150" stroke="rgba(37, 99, 235, 1)"></use><use xlink:href="#SvgjsPath1094" x="450" y="30" stroke="rgba(37, 99, 235, 1)"></use><use xlink:href="#SvgjsPath1093" x="450" y="90" stroke="rgba(37, 99, 235, 1)"></use><use xlink:href="#SvgjsPath1091" x="450" y="150" stroke="rgba(217, 70, 239, 1)" stroke-width="3"></use><use xlink:href="#SvgjsPath1089" x="510" y="30" stroke="rgba(217, 70, 239, 1)"></use><use xlink:href="#SvgjsPath1094" x="510" y="90" stroke="rgba(37, 99, 235, 1)"></use><use xlink:href="#SvgjsPath1089" x="510" y="150" stroke="rgba(37, 99, 235, 1)"></use><use xlink:href="#SvgjsPath1090" x="570" y="30" stroke="rgba(37, 99, 235, 1)"></use><use xlink:href="#SvgjsPath1089" x="570" y="90" stroke="rgba(217, 70, 239, 1)"></use><use xlink:href="#SvgjsPath1090" x="570" y="150" stroke="rgba(37, 99, 235, 1)"></use><use xlink:href="#SvgjsPath1090" x="630" y="30" stroke="rgba(37, 99, 235, 1)"></use><use xlink:href="#SvgjsPath1089" x="630" y="90" stroke="rgba(217, 70, 239, 1)"></use><use xlink:href="#SvgjsPath1094" x="630" y="150" stroke="rgba(37, 99, 235, 1)"></use><use xlink:href="#SvgjsPath1094" x="690" y="30" stroke="rgba(37, 99, 235, 1)"></use><use xlink:href="#SvgjsPath1093" x="690" y="90" stroke="rgba(217, 70, 239, 1)"></use><use xlink:href="#SvgjsPath1090" x="690" y="150" stroke="rgba(217, 70, 239, 1)"></use></g><defs><mask id="SvgjsMask1088"><rect width="672" height="168" fill="#ffffff"></rect></mask><path d="M-1 0 a1 1 0 1 0 2 0 a1 1 0 1 0 -2 0z" id="SvgjsPath1093"></path><path d="M-3 0 a3 3 0 1 0 6 0 a3 3 0 1 0 -6 0z" id="SvgjsPath1094"></path><path d="M-5 0 a5 5 0 1 0 10 0 a5 5 0 1 0 -10 0z" id="SvgjsPath1092"></path><path d="M2 -2 L-2 2z" id="SvgjsPath1089"></path><path d="M6 -6 L-6 6z" id="SvgjsPath1090"></path><path d="M30 -30 L-30 30z" id="SvgjsPath1091"></path></defs></svg>